<svg xmlns="http://www.w3.org/2000/svg" width="140" height="58" viewBox="0 0 140 58" fill="none"><script/><path d="m28.512 12.715-7.369-7.236-7.37 7.236-2.789-2.739L21.143.001l10.159 9.975-2.79 2.739Z" fill="#44B8F3"/><path d="M.735 15.257h14.892v4.123H5.22v5.004h8.972v4.158H5.22v5.144h10.407v4.158H.734V15.257Zm18.218-1.656h4.378v24.243h-4.378V13.601Zm7.054 15.821c0-4.932 3.733-8.95 8.685-8.95 4.916 0 8.648 3.735 8.648 8.598 0 .53-.036 1.128-.108 1.41H30.494c.43 2.36 2.26 4.052 4.916 4.052 1.722 0 3.193-.74 4.198-1.761l2.26 2.924c-1.291 1.48-3.73 2.643-6.638 2.643-5.347 0-9.223-4.018-9.223-8.916Zm4.558-1.655h8.29c-.503-2.397-2.046-3.63-4.092-3.63-2.188 0-3.696 1.48-4.198 3.63Zm31.41-6.8-6.209 16.878h-5.67l-6.244-16.88 4.81.001 4.377 13.038 4.45-13.038h4.486Zm13.827 15.046c-1.256 1.444-3.014 2.325-5.239 2.325-4.557 0-8.254-3.665-8.254-8.915 0-5.11 3.481-8.95 8.254-8.95 2.261 0 4.019.81 5.24 2.184v-1.69h4.413v16.878h-4.414v-1.832Zm0-6.626c0-2.712-1.902-4.862-4.521-4.862-2.656 0-4.594 2.15-4.594 4.862 0 2.714 1.938 4.898 4.594 4.898 2.62 0 4.521-2.184 4.521-4.898Zm12.243 8.458h-4.378V20.966h4.378v1.656c1.077-1.374 2.728-2.15 4.845-2.15 3.983 0 6.53 2.75 6.53 7.154v10.219h-4.377v-9.584c0-2.29-1.364-3.736-3.48-3.736-2.19 0-3.518 1.445-3.518 3.736v9.584Zm22.953-13.32c-2.87 0-4.808 2.15-4.808 4.863 0 2.713 1.974 4.898 4.772 4.898 1.759 0 3.158-.599 4.235-1.656l2.224 3.171c-1.363 1.48-3.838 2.538-6.566 2.538-5.096 0-9.043-4.018-9.043-8.916a8.923 8.923 0 0 1 8.971-8.95c2.943 0 5.275.987 6.782 2.537l-2.511 3.066c-1.077-1.022-2.369-1.551-4.056-1.551Zm7.61 4.898c0-4.932 3.732-8.95 8.685-8.95 4.916 0 8.648 3.735 8.647 8.598 0 .529-.036 1.127-.107 1.41h-12.739c.43 2.36 2.261 4.052 4.916 4.052a5.89 5.89 0 0 0 4.199-1.761l2.26 2.924c-1.292 1.48-3.732 2.643-6.639 2.643-5.347 0-9.222-4.018-9.222-8.916Zm4.557-1.655h8.29c-.503-2.397-2.046-3.63-4.091-3.63-2.189 0-3.696 1.48-4.199 3.63ZM77.191 51.322h-6.344v6.346h-3.003V42.546h3.003v6.016h6.344v-6.016h3.027V57.67H77.19v-6.346Zm4.935.707c0-3.302 2.499-5.991 5.815-5.991 3.29 0 5.79 2.5 5.79 5.756 0 .354-.025.755-.073.944H85.13c.287 1.58 1.513 2.712 3.29 2.713a3.94 3.94 0 0 0 2.812-1.18l1.513 1.958C91.88 57.22 90.247 58 88.3 58c-3.58 0-6.174-2.69-6.174-5.97Zm3.051-1.108h5.55c-.336-1.604-1.37-2.43-2.739-2.43-1.465 0-2.474.991-2.81 2.43Zm19.069 5.52c-.841.968-2.018 1.558-3.507 1.558-3.051 0-5.526-2.454-5.526-5.97 0-3.42 2.33-5.991 5.526-5.991 1.514 0 2.691.543 3.508 1.462v-1.13h2.954v11.3h-2.955v-1.226Zm.001-4.435c0-1.816-1.274-3.255-3.027-3.255-1.778 0-3.076 1.44-3.076 3.255 0 1.817 1.298 3.28 3.076 3.28 1.753 0 3.026-1.463 3.027-3.28Zm5.445-10.568h2.931v16.23h-2.931V41.44Zm4.894 4.93h2.042v-2.924h2.931v2.925h3.123v2.548h-3.099v4.788c0 1.062.456 1.58 1.321 1.58.529 0 1.057-.235 1.345-.565l1.322 2.146c-.649.614-1.73 1.133-3.148 1.133-2.33 0-3.819-1.44-3.819-4.2v-4.883h-2.018V46.37Zm13.727 11.3h-2.932l.001-16.23h2.931v6.04c.72-.92 1.826-1.44 3.243-1.44 2.667 0 4.372 1.84 4.372 4.79v6.84h-2.931l.001-6.415c0-1.534-.914-2.502-2.331-2.502-1.466 0-2.354.968-2.354 2.501v6.417Zm8.786-21.355a.639.639 0 0 0-.504-.237c-.244 0-.396.105-.396.268 0 .439 1.135.24 1.135.949 0 .352-.292.588-.745.588-.38 0-.628-.146-.767-.34l.206-.19a.689.689 0 0 0 .564.265c.279 0 .437-.118.437-.305 0-.485-1.134-.27-1.134-.958 0-.32.288-.541.71-.541.317 0 .573.136.697.308l-.203.193Zm.838-.016v1.547h-.285V35.85h.33l.732 1.142.729-1.142h.291v1.995h-.285v-1.547l-.754 1.155-.758-1.155Z" fill="#1A3673"/></svg>