<svg xmlns="http://www.w3.org/2000/svg" width="179" height="20" viewBox="0 0 179 20" fill="none"><script/><path d="M22.182.007h-7.645c-1.826 0-2.968 1.957-2.056 3.524l2.975 5.11a2.544 2.544 0 0 0 2.2 1.259h4l-3.031-5.211h3.557c4.224.127 5.54 3.3 5.54 5.21 0 3.822-3.152 5.413-5.708 5.413h-4.159c-2.909 0-4.433-1.637-5.135-2.833L6.174 1.24A2.489 2.489 0 0 0 4.022.006H0l7.984 13.757C11.1 19.143 15 19.878 17.634 20h4.695c6.395-.25 9.94-5.052 10.13-9.525 0-8.043-6.932-10.634-10.277-10.468Z" fill="#EE2737"/><path fill-rule="evenodd" clip-rule="evenodd" d="M85.395 18.792V9.054H83.84a.497.497 0 0 1-.5-.494V6.44c0-.273.224-.495.5-.495h1.771V1.48c0-.229.164-.428.388-.48l2.464.015c.335-.03.61.162.61.48v4.451h1.772c.275 0 .499.222.499.495V8.56a.497.497 0 0 1-.5.494h-1.77v9.73a.497.497 0 0 1-.5.495h-2.68a.495.495 0 0 1-.499-.487Zm-41.34-17.71h-3.223a.5.5 0 0 0-.476.664l6.432 17.216c.074.2.26.325.469.325h3.603a.507.507 0 0 0 .47-.325l6.43-17.216a.493.493 0 0 0-.469-.665h-3.216a.503.503 0 0 0-.469.34l-4.526 13.45-4.556-13.45a.487.487 0 0 0-.47-.34Zm19.208 15.2c-1.891 0-3.239-.99-3.566-2.517h8.717c.246 0 .447-.17.491-.406a8.08 8.08 0 0 0 .135-1.337c0-3.447-2.405-6.341-6.291-6.341-3.886 0-6.723 3.027-6.723 6.932 0 4.149 2.941 6.962 6.939 6.962 1.786 0 3.394-.362 4.563-.9a.502.502 0 0 0 .298-.451V15.86a.494.494 0 0 0-.715-.443c-1.116.547-2.486.864-3.849.864Zm-2.896-5.271h4.54a.494.494 0 0 0 .47-.657c-.343-1.004-1.362-1.647-2.658-1.647-1.31 0-2.352.68-2.806 1.602a.494.494 0 0 0 .454.702Zm17.137-5.323c-1.6.037-2.695.827-3.402 1.949V6.44a.497.497 0 0 0-.499-.495h-2.68a.497.497 0 0 0-.499.495v12.351c0 .273.223.495.499.495h2.68a.497.497 0 0 0 .499-.495V11.55c.082-1.418.945-2.304 2.293-2.304 1.4 0 2.293.997 2.293 2.466v7.08c0 .273.223.495.498.495h2.703a.497.497 0 0 0 .499-.495v-8.269c0-2.672-2.19-4.902-4.884-4.835Zm19.922 13.886c1.697 0 2.859-.805 3.536-1.956h.008v1.159c0 .273.223.494.498.494h2.68a.497.497 0 0 0 .499-.494V6.433a.497.497 0 0 0-.499-.494h-2.68a.496.496 0 0 0-.498.494v7.272c-.082 1.395-.946 2.303-2.293 2.303-1.407 0-2.271-.989-2.271-2.487V6.44a.497.497 0 0 0-.499-.495h-2.68a.497.497 0 0 0-.499.495v8.128c0 2.864 1.862 5.005 4.698 5.005Zm12.819-12.18c.648-.99 1.675-1.713 3.187-1.713.163 0 .387.007.595.022a.493.493 0 0 1 .454.495v2.738a.492.492 0 0 1-.625.473 4.898 4.898 0 0 0-1.348-.17c-1.295 0-2.188.886-2.27 2.303v7.243a.497.497 0 0 1-.499.494h-2.68a.497.497 0 0 1-.499-.494V6.44c0-.273.224-.494.499-.494h2.68c.276 0 .499.221.499.494v.953h.007Zm11.971 8.888c-1.891 0-3.238-.99-3.566-2.517h8.718c.246 0 .447-.17.491-.406a8.07 8.07 0 0 0 .134-1.337c0-3.447-2.404-6.341-6.29-6.341s-6.723 3.027-6.723 6.932c0 4.149 2.941 6.962 6.939 6.962 1.786 0 3.394-.362 4.563-.9a.501.501 0 0 0 .298-.451V15.86a.495.495 0 0 0-.715-.443c-1.117.547-2.486.864-3.849.864Zm-2.896-5.271h4.541a.493.493 0 0 0 .469-.657c-.342-1.004-1.362-1.647-2.657-1.647-1.311 0-2.353.68-2.807 1.602-.156.325.097.702.454.702Zm10.564-9.938a.497.497 0 0 0-.499.495v17.216c0 .273.224.495.499.495h6.306c5.583 0 9.067-3.773 9.067-9.103s-3.476-9.103-9.067-9.103h-6.306Zm3.335 3.67V15.61h2.94c3.321 0 5.13-2.325 5.13-5.433 0-3.079-1.809-5.434-5.13-5.434h-2.94Zm17.294-1.624c0-1.13-.842-2.038-2.033-2.038-1.169 0-2.025.901-2.032 2.038 0 1.137.863 2.015 2.032 2.015 1.191 0 2.033-.886 2.033-2.015Zm-.693 16.167h-2.68a.496.496 0 0 1-.498-.495V6.448c0-.273.223-.495.498-.495h2.68c.276 0 .499.222.499.495V18.79a.497.497 0 0 1-.499.495Zm8.874-4.532-3.015-8.475a.495.495 0 0 0-.462-.325h-2.791a.492.492 0 0 0-.462.664l4.698 12.344a.483.483 0 0 0 .461.317h3.171a.498.498 0 0 0 .462-.317l4.72-12.351a.489.489 0 0 0-.462-.665H162.2a.49.49 0 0 0-.469.325l-3.037 8.483Zm10.319-.99c.327 1.529 1.675 2.518 3.565 2.518 1.363 0 2.733-.317 3.849-.864a.495.495 0 0 1 .715.443v2.363a.5.5 0 0 1-.298.45c-1.169.539-2.777.9-4.563.9-3.998 0-6.939-2.812-6.939-6.961 0-3.905 2.837-6.932 6.723-6.932 3.886 0 6.29 2.894 6.29 6.341 0 .414-.059.923-.134 1.337a.494.494 0 0 1-.491.406h-8.717Zm5.218-2.753h-4.541c-.365 0-.618-.377-.454-.702.454-.922 1.496-1.602 2.806-1.602 1.296 0 2.315.643 2.658 1.647a.494.494 0 0 1-.469.657Z" fill="#fff"/></svg>